<svg preserveAspectRatio="none" overflow="visible" style="display: block;" width="14.8942" height="6.68583" viewBox="0 0 14.8942 6.68583" fill="none" xmlns="http://www.w3.org/2000/svg">
<path id="Vector" d="M11.5513 5.6025C12.1726 5.6025 12.7046 5.38125 13.1471 4.93875C13.5896 4.49625 13.8108 3.96431 13.8108 3.34292C13.8108 2.72153 13.5896 2.18958 13.1471 1.74708C12.7046 1.30458 12.1726 1.08333 11.5513 1.08333C10.9299 1.08333 10.3979 1.30458 9.95542 1.74708C9.51292 2.18958 9.29167 2.72153 9.29167 3.34292C9.29167 3.96431 9.51292 4.49625 9.95542 4.93875C10.3979 5.38125 10.9299 5.6025 11.5513 5.6025ZM11.5513 6.68583C10.7089 6.68583 9.98201 6.4182 9.37063 5.88292C8.75924 5.34764 8.38729 4.68153 8.25479 3.88458H0V2.80125H8.25479C8.38729 2.00431 8.75924 1.3382 9.37063 0.802917C9.98201 0.26764 10.7089 0 11.5513 0C12.4799 0 13.2692 0.325069 13.9192 0.975208C14.5692 1.62549 14.8942 2.41507 14.8942 3.34396C14.8942 4.27271 14.5692 5.06188 13.9192 5.71146C13.2692 6.36104 12.4799 6.68583 11.5513 6.68583Z" fill="#AAABB1"/>
</svg>
