<svg preserveAspectRatio="none" overflow="visible" style="display: block;" width="147.999" height="25.2178" viewBox="0 0 147.999 25.2178" fill="none" xmlns="http://www.w3.org/2000/svg">
<path id="Union" d="M4.20898 0C7.55811 3.34419 9.44043 7.8801 9.44043 12.6094C9.44036 17.3386 7.55796 21.8737 4.20898 25.2178L0 21.0146C2.2326 18.7854 3.48721 15.762 3.4873 12.6094C3.4873 9.45656 2.23277 6.43258 0 4.20312C1.40309 2.80223 2.80589 1.40099 4.20898 0ZM16.8389 4.20312C17.241 4.60483 17.6429 5.00668 18.0449 5.4082C18.9382 6.30002 19.4404 7.50933 19.4404 8.77051V16.4482C19.4403 17.7092 18.9381 18.9187 18.0449 19.8105C17.643 20.2119 17.2409 20.6133 16.8389 21.0146C15.4357 22.4157 14.0321 23.8167 12.6289 25.2178C11.226 23.8168 9.82287 22.4156 8.41992 21.0146C9.8228 19.6139 11.226 18.2133 12.6289 16.8125C13.7515 15.6917 14.8746 14.5709 15.9971 13.4502C16.4621 12.9859 16.462 12.2328 15.9971 11.7686C14.8745 10.6478 13.7515 9.527 12.6289 8.40625C11.2259 7.00524 9.82295 5.60413 8.41992 4.20312C9.82293 2.80222 11.2259 1.40099 12.6289 0C14.0321 1.40105 15.4357 2.80216 16.8389 4.20312ZM86.2637 4.9502C90.03 4.9502 92.8291 6.3225 92.8291 9.8291H89.3682C89.1647 8.5078 88.096 7.84668 86.2637 7.84668C84.3808 7.84668 83.4651 8.40575 83.4648 9.42188C83.4648 10.1841 84.0753 10.6424 85.3477 10.8965C86.3655 11.0828 87.3835 11.2688 88.4014 11.4551C91.455 12.014 93.1855 12.9288 93.1855 15.7236C93.1855 19.3318 89.7755 20.2978 86.1621 20.2979C82.2431 20.2979 79.2911 18.8746 79.291 15.2666H82.8027C82.9045 16.6386 84.1262 17.3496 86.2637 17.3496C88.3504 17.3496 89.3682 16.7908 89.3682 15.7236C89.3681 14.7074 88.1975 14.4532 87.1797 14.25C85.9752 14.0128 84.7709 13.7752 83.5664 13.5381C80.8689 13.0299 79.749 11.3023 79.749 9.37109C79.7492 6.22059 82.5993 4.9502 86.2637 4.9502ZM107.131 4.9502C110.846 4.9502 113.849 6.7288 114.409 10.8555H110.693C110.184 9.11737 108.963 8.25293 107.131 8.25293C104.637 8.25304 103.009 10.134 103.009 12.624C103.009 15.0632 104.688 16.9432 107.131 16.9434C109.014 16.9434 110.184 16.0796 110.693 14.3623H114.409C113.849 18.5698 110.744 20.2979 107.131 20.2979C102.398 20.2978 99.1407 17.0959 99.1406 12.624C99.1406 8.66016 101.838 4.9503 107.131 4.9502ZM121.943 4.9502C125.71 4.95022 128.509 6.32253 128.509 9.8291H125.048C124.844 8.50782 123.775 7.84671 121.943 7.84668C120.061 7.84668 119.145 8.40575 119.145 9.42188C119.145 10.1841 119.755 10.6424 121.027 10.8965C122.045 11.0828 123.063 11.2688 124.081 11.4551C127.135 12.014 128.865 12.9288 128.865 15.7236C128.865 19.3318 125.455 20.2978 121.842 20.2979C117.923 20.2979 114.971 18.8746 114.971 15.2666H118.482C118.584 16.6386 119.806 17.3496 121.943 17.3496C124.03 17.3496 125.048 16.7908 125.048 15.7236C125.048 14.7074 123.877 14.4532 122.859 14.25C121.655 14.0128 120.451 13.7752 119.246 13.5381C116.549 13.0299 115.429 11.3023 115.429 9.37109C115.429 6.22059 118.279 4.9502 121.943 4.9502ZM42.5928 5.40723C46.3079 5.4073 48.5977 6.98275 48.5977 10.7939C48.5976 14.6051 46.3078 16.1806 42.5928 16.1807H38.623V19.8096H34.7539V5.40723H42.5928ZM98.1201 19.8096H94.252V5.40723H98.1201V19.8096ZM53.4893 11.0059H60.1055V5.40625H63.9736V19.8086H60.1055V14.209H53.4893V19.8086H49.6211V5.40625H53.4893V11.0059ZM72.4199 11.3525L76.085 5.40625H80.3086L74.3545 14.9092V19.8086H70.4863V14.8584L64.5312 5.40625H68.7559L72.4199 11.3525ZM140.365 10.1396L143.571 5.40625H147.999L142.808 12.6074L147.999 19.8086H143.571L140.365 15.1777L137.107 19.8086H132.68L137.922 12.6074L132.68 5.40625H137.107L140.365 10.1396ZM38.623 12.9785H42.2871C43.5085 12.9785 44.7304 12.4708 44.7305 10.7939C44.7305 9.21861 43.6612 8.6084 42.2871 8.6084H38.623V12.9785Z" fill="white"/>
</svg>
